<?xml version="1.0" encoding="UTF-8" standalone="no"?>
<svg
   viewBox="0 0 225 225"
   version="1.1"
   id="svg1"
   sodipodi:docname="steam-plati.svg"
   xml:space="preserve"
   inkscape:version="1.3.2 (091e20e, 2023-11-25)"
   xmlns:inkscape="http://www.inkscape.org/namespaces/inkscape"
   xmlns:sodipodi="http://sodipodi.sourceforge.net/DTD/sodipodi-0.dtd"
   xmlns:xlink="http://www.w3.org/1999/xlink"
   xmlns="http://www.w3.org/2000/svg"
   xmlns:svg="http://www.w3.org/2000/svg"><defs
     id="defs1"><linearGradient
       id="A"
       x2="32.01076"
       x1="32.01076"
       y2="63.965491"
       y1="0"
       gradientTransform="scale(0.99946079,1.0005395)"
       gradientUnits="userSpaceOnUse"><stop
         stop-color="#111d2e"
         offset="0%"
         id="stop1" /><stop
         stop-color="#051839"
         offset="21.2%"
         id="stop2" /><stop
         stop-color="#0a1b48"
         offset="40.7%"
         id="stop3" /><stop
         stop-color="#132e62"
         offset="58.1%"
         id="stop4" /><stop
         stop-color="#144b7e"
         offset="73.8%"
         id="stop5" /><stop
         stop-color="#136497"
         offset="87.3%"
         id="stop6" /><stop
         stop-color="#1387b8"
         offset="100%"
         id="stop7" /></linearGradient></defs><sodipodi:namedview
     id="namedview1"
     pagecolor="#ffffff"
     bordercolor="#000000"
     borderopacity="0.25"
     inkscape:showpageshadow="2"
     inkscape:pageopacity="0.0"
     inkscape:pagecheckerboard="0"
     inkscape:deskcolor="#d1d1d1"
     inkscape:zoom="1.0488889"
     inkscape:cx="112.02331"
     inkscape:cy="112.5"
     inkscape:window-width="1920"
     inkscape:window-height="1027"
     inkscape:window-x="0"
     inkscape:window-y="25"
     inkscape:window-maximized="0"
     inkscape:current-layer="svg1" /><g
     style="fill:#ffffff"
     id="g1"
     transform="matrix(2.2723884,0,0,2.3657497,49.259913,30.294737)"><use
       xlink:href="#B"
       x="0.5"
       y="0.5"
       id="use1"
       transform="translate(-21.816812,-13.298898)" /><symbol
       id="B"><g
         id="g8"><path
           d="M 1.305,41.202 C 5.259,54.386 17.488,64 31.959,64 c 17.673,0 32,-14.327 32,-32 0,-17.673 -14.327,-32 -32,-32 C 15.001,0 1.124,13.193 0.028,29.874 c 2.074,3.477 2.879,5.628 1.275,11.328 z"
           fill="url(#A)"
           id="path7"
           style="fill:url(#A)" /><path
           d="m 30.31,23.985 0.003,0.158 -7.83,11.375 c -1.268,-0.058 -2.54,0.165 -3.748,0.662 a 8.14,8.14 0 0 0 -1.498,0.8 L 0.042,29.893 c 0,0 -0.398,6.546 1.26,11.424 l 12.156,5.016 c 0.6,2.728 2.48,5.12 5.242,6.27 a 8.88,8.88 0 0 0 11.603,-4.782 8.89,8.89 0 0 0 0.684,-3.656 l 11.193,-8.005 0.275,0.005 c 6.705,0 12.155,-5.466 12.155,-12.18 0,-6.714 -5.44,-12.16 -12.155,-12.174 -6.702,0 -12.155,5.46 -12.155,12.174 z m -1.88,23.05 c -1.454,3.5 -5.466,5.147 -8.953,3.694 a 6.84,6.84 0 0 1 -3.524,-3.362 l 3.957,1.64 a 5.04,5.04 0 0 0 6.591,-2.719 5.05,5.05 0 0 0 -2.715,-6.601 l -4.1,-1.695 c 1.578,-0.6 3.372,-0.62 5.05,0.077 1.7,0.703 3,2.027 3.696,3.72 0.696,1.693 0.692,3.56 -0.01,5.246 M 42.466,32.1 a 8.12,8.12 0 0 1 -8.098,-8.113 8.12,8.12 0 0 1 8.098,-8.111 8.12,8.12 0 0 1 8.1,8.111 8.12,8.12 0 0 1 -8.1,8.113 m -6.068,-8.126 a 6.09,6.09 0 0 1 6.08,-6.095 c 3.355,0 6.084,2.73 6.084,6.095 a 6.09,6.09 0 0 1 -6.084,6.093 6.09,6.09 0 0 1 -6.081,-6.093 z"
           id="path8" /></g></symbol></g><path
     fill="#f49423"
     d="m 138.15108,40.072779 c -1.968,2.811 -2.27,17.76 -0.396,19.634 1.474,1.474 6.254,1.563 8.866,0.165 2.332,-1.248 2.791,-14.704 0.646,-18.965 -1.762,-3.502 -6.917,-3.973 -9.116,-0.834 m -53.095995,21.029 c -5.24,2.972 -4.636,5.779 2.876,13.366 7.196996,7.268 8.170995,7.565 11.936995,3.634 3.714,-3.876 3.442,-5.03 -2.563,-10.865 -7.222999,-7.018 -9.065995,-7.941 -12.249995,-6.135 m 110.499995,-0.431 c -2.867,0.898 -13,11.639 -13,13.78 0,2.421 3.875,6.456 6.2,6.456 2.292,0 13.773,-12.123 13.788,-14.559 0.022,-3.704 -3.681,-6.712 -6.988,-5.677 m -68.449,20.828 c -2.233,2.232 -50.550995,100.235001 -50.550995,102.530001 0,4.264 3.419,5.878 12.453,5.878 12.848995,0 10.702995,2.71 32.512995,-41.061 10.672,-21.417 19.715,-38.939 20.095,-38.939 0.381,0 1.627,2.138 2.77,4.75 12.299,28.126 21.028,48.724 20.762,48.99 -0.18,0.18 -7.883,-1.493 -17.12,-3.717 -20.573,-4.954 -20.66,-4.93 -22.457,6.186 -0.649,4.01 -2.942,17.212 -5.098,29.339 -4.509,25.374 -4.526,25.592 -2.089,27.797 2.642,2.391 4.33,2.109 13.672,-2.289 10.557,-4.969 10.89,-5.535 13.572,-23.056 1.221,-7.975 2.503,-14.826 2.849,-15.226 0.346,-0.399 7.368,1.06 15.604,3.242 23.089,6.117 38.474,5.511 38.474,-1.514 0,-1.512 -4.57,-12.421 -20.528,-49.002 -4.798,-11 -11.809,-27.156 -15.58,-35.901 -3.771,-8.746001 -7.609,-16.733001 -8.529,-17.750001 -2.339,-2.585 -28.268,-2.801 -30.812,-0.257 M 60.555085,115.19478 c -3.502,1.762 -3.973,6.917 -0.834,9.116 2.811,1.968 17.76,2.27 19.634,0.396 1.995,-1.995 1.5,-8.569 -0.734,-9.765 -2.694,-1.442 -15.042,-1.269 -18.066,0.253 m 142.401995,2.107 c -0.294,0.767 -0.393,3.129 -0.219,5.25 l 0.317,3.855 h 9.962 c 9.72,0 9.997,-0.064 11.44,-2.635 1.327,-2.363 1.303,-2.904 -0.235,-5.25 -1.649,-2.517 -2.071,-2.615 -11.221,-2.615 -7.211,0 -9.638,0.337 -10.044,1.395"
     fill-rule="evenodd"
     id="path1" /></svg>
